<?xml version="1.0" encoding="UTF-8"?>
<svg id="Layer_2" data-name="Layer 2" xmlns="http://www.w3.org/2000/svg" viewBox="0 0 170.96 75.64">
  <defs>
    <style>
      .cls-1 {
        fill: #d9b66c;
      }
    </style>
  </defs>
  <g id="Layer_1-2" data-name="Layer 1">
    <path class="cls-1" d="M79.75,75.32c0,.22-.11.32-.32.32h-21.83c-7.24,0-13.18-5.94-13.18-13.18v-5.83c0-10.27-3.13-18.59-7.13-18.59-.11,0-.32-.11-.32-.22s.22-.32.32-.32c4,0,7.13-8.21,7.13-18.48S41.28.54,37.28.54h-8.64v69.92c0,2.59,2.05,4.65,4.65,4.65h1.4c.11,0,.22.11.22.22,0,.22-.11.32-.22.32H.22c-.11,0-.22-.11-.22-.32,0-.11.11-.22.22-.22h1.4c2.59,0,4.65-2.05,4.65-4.65V5.19C6.27,2.59,4.21.54,1.62.54H.22c-.11,0-.22-.11-.22-.32,0-.11.11-.22.22-.22h47.66c10.48,0,19.02,8.54,19.02,19.02,0,9.4-6.81,17.29-15.88,18.8,9.08,1.51,15.88,9.29,15.88,18.8v5.83c0,7.02,5.62,12.64,12.54,12.64.22,0,.32.11.32.22Z"/>
    <path class="cls-1" d="M120.93,13.18l-21.72,57.38c-.54,1.4-.43,2.59.11,3.35.54.76,1.51,1.19,2.7,1.19h1.3c.22,0,.32.11.32.22,0,.22-.11.32-.32.32h-12.54c-.11,0-.22-.11-.22-.32,0-.11.11-.22.22-.22h1.41c2.49,0,5.51-2.16,6.48-4.75l21.83-57.38s.11-.22.33-.11c0,0,.22.11.11.32ZM120.93,13.18c-2.27-6.92-9.83-12.64-16.75-12.64-.22,0-.32-.11-.32-.32,0-.11.11-.22.32-.22h22.91c7.13,0,14.91,5.84,17.29,12.86l18.8,57.49c.86,2.7,3.57,4.75,6.16,4.75h1.4c.11,0,.22.11.22.22,0,.22-.11.32-.22.32h-35.55c-.11,0-.22-.11-.22-.32,0-.11.11-.22.22-.22h1.4c1.19,0,2.16-.43,2.7-1.19.65-.86.76-2.05.32-3.35M105.87,51.98c-.11,0-.22-.11-.22-.22,0-.22.11-.32.22-.32"/>
  </g>
</svg>