<?xml version="1.0" encoding="UTF-8"?>
<svg id="Layer_2" data-name="Layer 2" xmlns="http://www.w3.org/2000/svg" viewBox="0 0 200 116.7">
  <defs>
    <style>
      .cls-1, .cls-2 {
        fill: #4f6a58;
      }

      .cls-3 {
        fill: #d9b66c;
      }

      .cls-2 {
        font-family: MacklinDisplay-Bold, 'Macklin Display';
        font-size: 20.83px;
        font-weight: 700;
      }
    </style>
  </defs>
  <g id="Layer_1-2" data-name="Layer 1">
    <path class="cls-3" d="M80.05,75.32c0,.22-.11.32-.32.32h-21.83c-7.24,0-13.18-5.94-13.18-13.18v-5.83c0-10.27-3.13-18.59-7.13-18.59-.11,0-.32-.11-.32-.22s.22-.32.32-.32c4,0,7.13-8.21,7.13-18.48S41.58.54,37.58.54h-8.64v69.92c0,2.59,2.05,4.65,4.65,4.65h1.4c.11,0,.22.11.22.22,0,.22-.11.32-.22.32H.51c-.11,0-.22-.11-.22-.32,0-.11.11-.22.22-.22h1.4c2.59,0,4.65-2.05,4.65-4.65V5.19C6.56,2.59,4.51.54,1.92.54H.51c-.11,0-.22-.11-.22-.32,0-.11.11-.22.22-.22h47.66c10.48,0,19.02,8.54,19.02,19.02,0,9.4-6.81,17.29-15.88,18.8,9.08,1.51,15.88,9.29,15.88,18.8v5.83c0,7.02,5.62,12.64,12.54,12.64.22,0,.32.11.32.22Z"/>
    <path class="cls-3" d="M121.22,13.18l-21.72,57.38c-.54,1.4-.43,2.59.11,3.35.54.76,1.51,1.19,2.7,1.19h1.3c.22,0,.32.11.32.22,0,.22-.11.32-.32.32h-12.54c-.11,0-.22-.11-.22-.32,0-.11.11-.22.22-.22h1.41c2.49,0,5.51-2.16,6.48-4.75l21.83-57.38s.11-.22.33-.11c0,0,.22.11.11.32ZM121.22,13.18c-2.27-6.92-9.83-12.64-16.75-12.64-.22,0-.32-.11-.32-.32,0-.11.11-.22.32-.22h22.91c7.13,0,14.91,5.84,17.29,12.86l18.8,57.49c.86,2.7,3.57,4.75,6.16,4.75h1.4c.11,0,.22.11.22.22,0,.22-.11.32-.22.32h-35.55c-.11,0-.22-.11-.22-.32,0-.11.11-.22.22-.22h1.4c1.19,0,2.16-.43,2.7-1.19.65-.86.76-2.05.32-3.35M106.16,51.98c-.11,0-.22-.11-.22-.22,0-.22.11-.32.22-.32"/>
    <path class="cls-1" d="M0,110.56h1l1.56,2.68,1.56-2.68h.95l-2.12,3.44v2.57h-.83v-2.57l-2.12-3.44Z"/>
    <path class="cls-1" d="M11.65,110.43c1.51,0,3.02,1.12,3.02,3.13s-1.51,3.14-3.02,3.14-3.02-1.13-3.02-3.14,1.51-3.13,3.02-3.13ZM11.65,115.93c1.12,0,2.17-.8,2.17-2.37s-1.05-2.36-2.17-2.36-2.17.8-2.17,2.36,1.05,2.37,2.17,2.37Z"/>
    <path class="cls-1" d="M19.21,114.52v-3.96h.82v3.93c0,.91.5,1.43,1.34,1.43s1.33-.52,1.33-1.43v-3.93h.83v3.96c0,1.41-.94,2.18-2.16,2.18s-2.16-.76-2.16-2.18Z"/>
    <path class="cls-1" d="M30.18,114.11h-.9v2.46h-.84v-6.01h2.26c1.14,0,1.84.8,1.84,1.79,0,.86-.55,1.53-1.46,1.7l1.43,2.52h-.97l-1.37-2.46ZM30.56,113.37c.68,0,1.14-.4,1.14-1.02s-.46-1.04-1.14-1.04h-1.27v2.06h1.27Z"/>
    <path class="cls-1" d="M42.68,116.57v-6.01h.83v5.23h2.84v.78h-3.67Z"/>
    <path class="cls-1" d="M53.15,110.43c1.51,0,3.02,1.12,3.02,3.13s-1.51,3.14-3.02,3.14-3.02-1.13-3.02-3.14,1.51-3.13,3.02-3.13ZM53.15,115.93c1.12,0,2.17-.8,2.17-2.37s-1.05-2.36-2.17-2.36-2.17.8-2.17,2.36,1.05,2.37,2.17,2.37Z"/>
    <path class="cls-1" d="M64.86,116.57l-3.25-4.9v4.9h-.83v-6.01h1.11l3,4.61v-4.61h.83v6.01h-.86Z"/>
    <path class="cls-1" d="M75.27,116.57l-.08-.85c-.26.47-.91.97-1.92.97-1.51,0-2.92-1.1-2.92-3.14s1.49-3.13,2.98-3.13c1.3,0,2.31.73,2.66,1.81l-.75.32c-.27-.86-.97-1.37-1.91-1.37-1.08,0-2.13.77-2.13,2.36s1.02,2.38,2.09,2.38c1.34,0,1.82-.95,1.86-1.57h-2.08v-.75h2.87v2.94h-.67Z"/>
    <path class="cls-1" d="M80.7,116.57v-6.01h3.65v.77h-2.82v1.85h2.56v.78h-2.56v1.84h2.82v.77h-3.65Z"/>
    <path class="cls-1" d="M92.95,110.56h.87l-2.31,6.01h-.82l-2.26-6.01h.88l1.81,4.94,1.83-4.94Z"/>
    <path class="cls-1" d="M98.15,116.57v-6.01h.85v6.01h-.85Z"/>
    <path class="cls-1" d="M106.16,111.33v5.24h-.83v-5.24h-2.01v-.77h4.85v.77h-2.01Z"/>
    <path class="cls-1" d="M111.99,110.56h1l1.56,2.68,1.56-2.68h.95l-2.12,3.44v2.57h-.83v-2.57l-2.12-3.44Z"/>
    <path class="cls-1" d="M126.51,113.56c0-2.01,1.49-3.13,2.98-3.13,1.37,0,2.34.75,2.64,1.91l-.77.27c-.23-.91-.89-1.41-1.87-1.41-1.09,0-2.14.8-2.14,2.36s1.04,2.37,2.14,2.37c1.03,0,1.67-.62,1.92-1.44l.74.27c-.32,1.13-1.27,1.93-2.65,1.93-1.55,0-2.98-1.13-2.98-3.14Z"/>
    <path class="cls-1" d="M139.28,110.43c1.51,0,3.02,1.12,3.02,3.13s-1.51,3.14-3.02,3.14-3.02-1.13-3.02-3.14,1.51-3.13,3.02-3.13ZM139.28,115.93c1.12,0,2.17-.8,2.17-2.37s-1.05-2.36-2.17-2.36-2.17.8-2.17,2.36,1.05,2.37,2.17,2.37Z"/>
    <path class="cls-1" d="M150.22,114.89h-2.66l-.64,1.68h-.89l2.39-6.01h.96l2.39,6.01h-.9l-.65-1.68ZM147.85,114.12h2.07l-1.04-2.7-1.02,2.7Z"/>
    <path class="cls-1" d="M155.5,113.56c0-2.01,1.49-3.13,2.98-3.13,1.37,0,2.34.75,2.64,1.91l-.77.27c-.23-.91-.89-1.41-1.87-1.41-1.09,0-2.14.8-2.14,2.36s1.04,2.37,2.14,2.37c1.03,0,1.67-.62,1.92-1.44l.74.27c-.32,1.13-1.27,1.93-2.65,1.93-1.55,0-2.98-1.13-2.98-3.14Z"/>
    <path class="cls-1" d="M169.62,116.57v-2.67h-3.07v2.67h-.83v-6.01h.83v2.57h3.07v-2.57h.83v6.01h-.83Z"/>
    <text class="cls-2" transform="translate(.3 103.09)"><tspan x="0" y="0">DR RICHA ARORA</tspan></text>
  </g>
</svg>